<?xml version="1.0" standalone="no"?>
<!DOCTYPE svg PUBLIC "-//W3C//DTD SVG 20010904//EN"
 "http://www.w3.org/TR/2001/REC-SVG-20010904/DTD/svg10.dtd">
<svg version="1.0" xmlns="http://www.w3.org/2000/svg"
 width="450.000000pt" height="450.000000pt" viewBox="0 0 450.000000 450.000000"
 preserveAspectRatio="xMidYMid meet">
<metadata>
Created by potrace 1.11, written by Peter Selinger 2001-2013
</metadata>
<g transform="translate(0.000000,450.000000) scale(0.100000,-0.100000)"
fill="#000000" stroke="none">
<path d="M2020 4489 c-394 -40 -789 -196 -1120 -442 -122 -91 -356 -325 -447
-447 -96 -130 -200 -305 -257 -436 -333 -756 -236 -1600 257 -2264 91 -122
325 -356 447 -447 664 -493 1508 -590 2264 -257 243 106 463 260 671 469 209
208 363 428 469 671 333 756 236 1600 -257 2264 -91 122 -325 356 -447 447
-459 341 -1021 499 -1580 442z m441 -9 c412 -41 802 -192 1139 -443 122 -91
346 -315 437 -437 493 -664 590 -1508 257 -2264 -105 -240 -260 -463 -464
-666 -203 -204 -426 -359 -666 -464 -756 -333 -1600 -236 -2264 257 -122 91
-346 315 -437 437 -96 130 -200 305 -257 436 -333 756 -236 1600 257 2264 91
122 315 346 437 437 455 338 1013 497 1561 443z"/>
<path d="M2184 4283 c-91 -137 -84 -133 -135 -78 -24 25 -65 68 -90 94 l-47
48 -57 -119 c-36 -76 -60 -116 -68 -111 -6 4 -18 12 -27 19 -13 12 -42 34
-118 92 -12 9 -29 22 -36 29 -16 14 -26 -7 -46 -87 -10 -40 -41 -139 -46 -148
-3 -4 -193 95 -212 111 -7 5 -15 8 -18 5 -3 -4 -31 -214 -34 -254 0 -3 -124
36 -145 45 -114 49 -109 54 -102 -97 l7 -129 -43 8 c-23 4 -80 14 -126 23 -47
9 -86 14 -88 12 -4 -3 13 -102 36 -215 l9 -44 -130 7 -131 6 7 -31 c3 -17 12
-45 20 -62 8 -18 23 -58 32 -90 14 -46 15 -60 6 -66 -7 -4 -60 -13 -118 -19
-58 -7 -109 -14 -114 -17 -4 -3 4 -27 19 -54 14 -28 41 -78 59 -112 18 -34 32
-62 30 -63 -10 -8 -72 -28 -128 -41 -88 -22 -119 -36 -109 -49 12 -15 59 -77
84 -112 11 -15 30 -40 43 -55 l22 -27 -36 -21 c-19 -12 -37 -21 -39 -21 -3 0
-39 -16 -81 -36 -86 -40 -86 -34 -1 -113 107 -99 109 -102 90 -120 -10 -9 -57
-43 -105 -75 -49 -32 -88 -59 -88 -61 0 -2 37 -29 83 -59 45 -31 92 -64 105
-74 l24 -18 -35 -35 c-19 -19 -61 -59 -94 -90 l-59 -56 118 -57 c80 -38 116
-60 112 -68 -4 -7 -13 -19 -20 -28 -12 -13 -34 -42 -92 -118 -9 -12 -22 -28
-28 -35 -12 -14 9 -27 66 -42 31 -8 164 -48 168 -51 4 -2 -59 -126 -67 -134
-14 -12 -49 -90 -42 -94 4 -3 47 -10 97 -16 49 -6 103 -13 120 -16 l32 -4 -19
-63 c-11 -34 -23 -71 -28 -82 -13 -27 -31 -86 -31 -98 0 -6 49 -7 130 -2 l131
7 -6 -28 c-3 -16 -10 -47 -15 -69 -14 -61 -30 -158 -27 -162 3 -2 91 12 211
35 l49 10 -7 -129 c-8 -152 -15 -145 99 -98 11 4 46 16 78 25 71 22 72 20 82
-85 3 -42 11 -92 16 -112 l9 -37 50 27 c27 14 76 41 110 59 33 17 62 32 64 32
2 0 11 -26 20 -57 52 -175 58 -192 70 -182 6 5 40 31 76 59 36 27 77 58 92 69
l26 21 21 -36 c12 -19 21 -37 21 -39 0 -3 16 -39 36 -81 40 -86 34 -86 113 -1
99 107 102 109 120 90 9 -10 43 -57 75 -105 32 -49 59 -88 61 -88 2 0 29 39
61 88 32 48 66 95 75 105 18 19 21 17 120 -90 79 -85 73 -85 113 1 20 42 36
78 36 81 0 2 9 20 21 39 l21 36 26 -21 c15 -11 56 -42 92 -69 36 -28 70 -54
76 -59 12 -10 16 1 60 144 15 50 28 91 29 93 2 2 30 -12 64 -30 34 -18 84 -45
111 -59 l50 -27 9 37 c5 20 12 68 16 106 4 39 9 80 12 91 l5 21 61 -18 c34
-11 71 -23 82 -28 110 -47 105 -53 98 100 l-6 130 29 -6 c16 -3 47 -10 69 -15
56 -13 158 -30 161 -27 3 3 -14 115 -25 162 -6 22 -13 53 -16 69 l-6 29 130
-8 c72 -4 131 -3 131 2 0 4 -18 60 -39 123 -45 133 -49 123 69 135 104 9 154
23 142 38 -16 19 -114 208 -110 211 1 2 37 13 78 25 144 43 169 53 157 66 -7
6 -21 24 -32 39 -43 59 -91 122 -103 134 -20 22 -24 19 154 102 l70 33 -59 56
c-131 124 -130 122 -110 140 10 9 57 43 106 75 48 32 87 59 87 61 0 2 -37 28
-82 59 -46 30 -93 64 -106 74 l-24 18 35 35 c19 19 61 59 94 90 l59 56 -70 33
c-178 83 -174 80 -154 102 13 13 62 77 103 134 11 15 25 32 31 38 15 14 -15
29 -107 51 -41 10 -78 21 -83 26 -6 5 -18 9 -28 9 -10 0 -18 3 -18 6 0 8 99
195 112 211 13 17 2 21 -98 33 -49 6 -103 13 -120 16 l-32 4 19 63 c11 34 23
71 28 82 12 27 31 86 31 97 0 6 -53 6 -131 2 l-130 -7 6 29 c3 16 10 47 15 69
14 61 30 158 27 162 -3 2 -91 -12 -211 -35 l-49 -10 7 129 c7 152 14 145 -99
98 -50 -20 -135 -42 -142 -36 -3 4 -12 55 -19 114 -8 59 -16 113 -18 119 -4
10 -16 7 -48 -9 -24 -12 -45 -24 -48 -27 -9 -9 -132 -71 -135 -68 -1 2 -12 37
-24 78 -41 138 -53 168 -65 159 -6 -5 -40 -31 -76 -59 -36 -27 -77 -58 -92
-70 l-27 -21 -18 33 c-10 18 -25 49 -33 68 -8 19 -26 58 -38 86 l-24 51 -46
-48 c-26 -26 -67 -69 -91 -94 -51 -55 -44 -59 -135 78 -32 48 -59 87 -61 87
-2 0 -29 -39 -61 -87z m313 -293 c370 -50 706 -220 983 -499 274 -276 409
-532 491 -931 18 -87 21 -437 6 -550 -22 -157 -67 -328 -111 -425 -49 -107
-105 -214 -123 -233 -6 -6 -15 -21 -18 -32 -3 -11 -10 -20 -14 -20 -4 0 -13
-11 -19 -24 -42 -94 -397 -447 -472 -471 -11 -3 -20 -10 -20 -15 0 -5 -9 -12
-20 -15 -11 -3 -26 -12 -32 -18 -19 -18 -126 -74 -233 -123 -92 -42 -266 -88
-410 -109 -109 -16 -379 -19 -495 -5 -87 11 -249 45 -285 60 -11 5 -45 16 -75
25 -128 40 -327 150 -475 264 -80 61 -260 241 -316 316 -203 268 -313 530
-349 825 -13 109 -13 392 0 498 16 126 67 318 112 422 28 65 109 224 117 230
4 3 22 30 41 60 38 61 37 59 110 147 84 102 188 202 320 306 8 7 40 28 70 47
30 19 57 37 60 41 6 8 165 89 230 117 97 42 290 94 410 111 92 12 424 13 517
1z"/>
<path d="M2016 3949 c-43 -5 -93 -13 -110 -18 -17 -5 -58 -15 -91 -21 -66 -13
-155 -42 -225 -72 -75 -33 -223 -109 -246 -126 -12 -9 -32 -24 -44 -32 -173
-114 -368 -309 -480 -480 -8 -12 -23 -32 -32 -44 -16 -21 -89 -164 -122 -236
-43 -97 -77 -220 -107 -380 -16 -88 -22 -353 -10 -471 24 -252 115 -517 241
-708 19 -29 44 -67 55 -85 10 -17 24 -36 30 -42 5 -6 28 -33 50 -60 68 -82
166 -177 260 -252 50 -40 96 -77 103 -83 24 -20 167 -101 217 -124 27 -13 70
-32 95 -43 25 -11 59 -24 75 -28 17 -4 35 -10 40 -14 12 -9 184 -49 265 -61
107 -16 315 -21 431 -10 113 11 344 56 364 71 6 4 23 10 40 14 55 14 212 89
320 155 190 116 450 376 566 566 66 108 141 265 155 320 4 17 10 35 14 40 15
20 60 251 71 364 11 116 6 324 -10 431 -12 81 -52 253 -61 265 -4 6 -10 24
-14 40 -8 31 -14 46 -64 156 -35 76 -115 213 -137 235 -8 9 -15 19 -15 23 0 5
-10 20 -22 33 -13 14 -39 45 -58 69 -45 56 -172 183 -234 234 -27 22 -54 45
-60 50 -41 37 -193 129 -291 177 -33 16 -67 33 -75 37 -27 13 -213 69 -285 85
-155 35 -408 45 -599 25z m386 -23 c205 -22 322 -47 423 -91 17 -7 40 -16 52
-20 40 -11 222 -105 268 -137 225 -158 457 -397 540 -555 11 -21 23 -40 27
-43 7 -6 98 -195 98 -205 0 -4 7 -21 14 -38 39 -85 72 -242 90 -427 12 -133
12 -175 1 -297 -20 -208 -33 -271 -88 -428 -30 -86 -130 -289 -164 -330 -4 -6
-24 -33 -43 -60 -19 -28 -39 -55 -45 -62 -5 -6 -32 -37 -60 -69 -63 -73 -106
-116 -179 -179 -32 -27 -63 -55 -69 -60 -7 -6 -34 -26 -62 -45 -27 -19 -52
-37 -55 -40 -11 -12 -189 -108 -245 -132 -221 -95 -368 -122 -660 -122 -353 0
-563 54 -855 221 -147 84 -371 286 -486 439 -70 93 -114 160 -114 173 0 5 -4
11 -9 13 -8 3 -101 191 -101 204 0 3 -7 20 -14 37 -64 139 -112 486 -95 692
17 207 48 365 94 470 7 17 16 41 20 55 9 30 123 252 133 260 4 3 25 32 47 64
56 83 76 107 195 226 110 110 132 129 242 209 74 53 318 181 346 181 10 0 22
4 28 9 23 23 222 67 389 85 163 18 180 18 337 2z"/>
<path d="M2412 3832 c-6 -26 -13 -92 -17 -147 l-7 -100 93 -13 c177 -23 232
-15 244 39 5 24 2 38 -13 59 -21 27 -21 28 -2 33 27 7 42 51 28 81 -18 40 -94
65 -275 90 l-41 6 -10 -48z m206 -38 c65 -30 24 -70 -59 -59 -51 7 -56 14 -43
62 5 19 11 21 38 17 17 -3 46 -12 64 -20z m-12 -125 c13 -12 24 -30 24 -40 0
-25 -52 -42 -106 -34 -41 6 -45 9 -40 28 3 12 6 35 6 51 0 28 1 29 46 23 28
-3 54 -13 70 -28z"/>
<path d="M1890 3854 c-66 -25 -121 -57 -139 -82 -25 -35 -28 -97 -6 -138 13
-25 12 -29 -4 -38 -10 -6 -28 -17 -40 -24 -20 -12 -21 -11 -21 17 0 41 -51 98
-100 111 -39 11 -140 -3 -140 -20 0 -4 -14 -13 -31 -20 -17 -7 -55 -31 -84
-54 -29 -23 -65 -49 -79 -60 -29 -21 -26 -30 21 -83 15 -18 42 -49 58 -69 17
-21 42 -51 56 -67 l26 -30 79 59 c43 32 81 61 84 64 33 34 36 28 17 -28 -17
-49 -28 -63 -71 -93 -103 -70 -208 -171 -292 -284 -32 -44 -62 -82 -65 -85 -3
-3 -12 -20 -20 -37 -8 -18 -17 -33 -21 -33 -5 0 -8 -4 -8 -10 0 -5 -13 -39
-30 -74 -16 -36 -32 -78 -36 -93 -4 -15 -10 -32 -14 -38 -14 -19 -49 -221 -55
-320 -12 -199 32 -431 116 -614 20 -44 98 -172 109 -181 4 -3 11 -12 16 -21
25 -43 141 -168 200 -215 20 -16 48 -39 63 -52 35 -30 40 -34 86 -62 105 -65
187 -104 285 -134 157 -48 234 -59 400 -58 166 0 268 17 420 67 70 23 99 37
219 103 35 18 43 20 47 7 4 -8 -6 -24 -22 -38 -22 -19 -27 -32 -27 -69 0 -120
119 -172 196 -85 21 24 22 82 3 119 -13 25 -13 29 1 37 12 6 32 -1 72 -24 52
-31 57 -32 72 -17 14 15 14 22 3 56 -17 47 -18 73 -2 82 12 7 21 -3 51 -58 18
-31 20 -32 32 -14 10 13 11 24 3 41 -9 19 -6 29 12 54 19 27 26 31 53 26 30
-6 35 -2 94 76 34 45 60 86 57 91 -11 18 -34 6 -61 -31 l-27 -38 -30 21 c-71
50 -75 56 -77 131 -1 52 3 79 16 105 73 139 104 222 136 365 32 143 32 375 0
530 -13 61 -27 115 -31 120 -4 6 -10 24 -14 40 -22 89 -169 338 -241 405 l-23
22 19 56 c13 37 18 69 14 92 l-6 35 60 -63 60 -63 -14 -46 c-14 -46 -13 -47
14 -85 17 -23 32 -35 36 -29 3 6 30 81 59 166 l53 154 -23 22 c-24 22 -25 22
-146 10 -96 -10 -123 -10 -127 0 -8 26 -72 86 -114 107 -47 24 -84 27 -133 13
-50 -14 -56 -1 -26 51 31 52 20 53 115 -3 31 -18 49 -23 56 -16 11 11 -10 30
-76 67 -46 25 -51 36 -29 65 13 18 16 18 42 5 16 -8 55 -33 87 -54 53 -36 59
-38 74 -24 14 15 13 18 -13 34 -16 10 -31 21 -34 24 -16 19 -213 120 -233 120
-8 0 -32 -40 -56 -97 -24 -54 -49 -111 -56 -128 -13 -28 -13 -31 8 -47 12 -10
27 -18 34 -18 24 0 22 -18 -3 -35 -21 -13 -31 -15 -48 -6 -40 20 -167 62 -234
77 -114 26 -212 35 -333 32 l-116 -3 -31 31 -31 32 29 12 c35 15 70 70 70 111
0 36 -29 96 -60 124 -17 15 -38 20 -93 22 -40 1 -79 0 -87 -3z m100 -62 c39
-36 52 -120 25 -156 -11 -14 -22 -17 -47 -12 -18 3 -51 9 -73 12 -50 9 -55 16
-55 81 0 44 4 54 28 72 34 26 96 27 122 3z m-454 -193 c29 -27 38 -67 24 -104
-10 -27 -76 -95 -91 -95 -5 0 -26 26 -48 58 -22 31 -44 62 -49 67 -38 46 -33
60 33 88 49 21 100 15 131 -14z m867 -109 c167 -19 372 -85 361 -115 -8 -19
-33 -19 -81 -1 -43 17 -112 31 -225 45 -59 8 -103 7 -189 -4 -62 -8 -113 -15
-114 -15 -1 0 -8 18 -15 40 -7 22 -18 40 -24 41 -6 1 0 5 14 9 36 12 171 11
273 0z m-456 -36 c76 -39 81 -71 14 -97 -39 -16 -131 -81 -143 -102 -4 -7 -19
-20 -33 -29 -23 -15 -26 -15 -45 4 -24 24 -28 122 -6 174 34 82 113 100 213
50z m1104 -119 c1 -17 21 -35 39 -35 68 0 48 -151 -26 -204 l-27 -19 -26 31
c-84 99 -131 162 -131 176 0 8 15 26 33 40 27 22 41 26 85 24 29 -2 53 -7 53
-13z m332 -17 c-3 -13 -9 -27 -13 -33 -4 -5 -11 -25 -15 -43 l-7 -34 -48 53
c-27 30 -47 55 -46 56 2 2 30 7 62 12 32 5 62 9 66 10 3 0 4 -9 1 -21z m-1792
-112 c10 -32 32 -80 49 -107 23 -37 28 -53 20 -67 -20 -36 -70 -153 -70 -165
0 -7 -4 -17 -9 -23 -17 -17 -100 -363 -101 -417 0 -11 -35 -71 -78 -135 -83
-126 -108 -169 -101 -177 3 -2 26 2 51 10 65 19 73 8 64 -95 -6 -65 -5 -81 7
-86 11 -4 13 -13 6 -42 -5 -20 -9 -50 -9 -67 0 -19 -11 -40 -30 -59 -37 -36
-87 -137 -99 -201 -17 -88 -19 -90 -52 -48 -16 21 -34 44 -40 51 -10 13 -92
172 -117 228 -26 60 -63 233 -73 342 -20 230 32 508 125 672 14 25 29 52 33
60 7 17 62 98 78 116 6 6 23 28 39 48 49 62 171 179 226 216 12 8 29 20 38 27
14 9 18 8 20 -5 2 -9 12 -43 23 -76z m1649 -203 c15 -18 49 -69 86 -128 120
-193 178 -475 154 -744 -6 -69 -14 -129 -16 -133 -3 -5 -14 -45 -25 -88 -10
-44 -23 -88 -28 -97 -5 -10 -26 -53 -45 -95 -20 -43 -38 -78 -40 -78 -2 0 -15
19 -29 43 -30 51 -164 177 -189 177 -13 0 -9 58 9 127 l18 65 67 -4 c37 -1 69
0 70 2 2 3 -13 26 -33 50 -68 84 -71 96 -81 315 -8 196 -22 316 -52 445 -22
94 -20 105 26 166 l42 56 25 -30 c14 -17 33 -39 41 -49z m-732 -463 c92 -10
136 -27 203 -79 64 -49 91 -92 97 -151 4 -41 0 -56 -19 -85 -13 -19 -27 -35
-30 -35 -3 0 -17 -9 -30 -21 -19 -16 -32 -19 -62 -15 -40 7 -102 41 -126 70
-8 10 -28 24 -44 33 -27 14 -33 13 -87 -11 -80 -36 -201 -46 -254 -21 -103 49
-76 198 49 273 85 51 149 60 303 42z m19 -346 l55 -36 -7 -52 c-17 -127 -63
-196 -133 -196 -75 1 -123 72 -130 191 l-4 75 43 13 c24 7 53 19 64 27 30 22
53 17 112 -22z m406 -639 c34 -35 79 -71 100 -80 20 -8 37 -20 37 -26 0 -22
-25 -56 -80 -109 -46 -45 -58 -64 -63 -98 -4 -23 -12 -42 -17 -42 -5 0 -31
-13 -57 -30 -54 -34 -79 -39 -68 -12 19 49 73 369 75 445 0 9 3 17 6 17 3 0
33 -29 67 -65z m452 -197 c30 -23 53 -44 51 -46 -6 -5 -115 28 -120 37 -6 8 4
51 11 51 2 0 29 -19 58 -42z m-80 -58 c9 -15 -16 -43 -27 -32 -10 10 0 42 12
42 5 0 12 -5 15 -10z m-122 -144 c4 -10 1 -13 -8 -9 -8 3 -12 9 -9 14 7 12 11
11 17 -5z m-159 -61 c40 -43 41 -94 2 -115 -32 -16 -63 -5 -81 30 -20 39 -19
66 5 90 27 27 46 25 74 -5z"/>
<path d="M2454 2481 c-65 -28 -87 -128 -37 -171 39 -33 100 -38 136 -10 52 41
57 98 13 153 -24 30 -76 43 -112 28z"/>
<path d="M1098 3418 c-18 -18 -58 -62 -88 -98 -30 -36 -57 -67 -60 -70 -3 -3
-13 -17 -23 -32 l-17 -28 62 -44 c35 -25 68 -49 73 -53 6 -4 31 -23 57 -40
l46 -33 42 56 c23 31 63 75 88 99 30 29 43 48 39 59 -10 26 -25 19 -82 -39
-29 -30 -55 -55 -58 -55 -3 0 -23 16 -44 35 l-37 34 24 28 c14 15 38 40 53 56
21 22 25 33 17 41 -8 8 -26 -5 -66 -46 -54 -56 -56 -57 -80 -42 -13 9 -24 19
-24 23 0 3 31 40 70 82 57 63 67 79 56 88 -11 9 -21 5 -48 -21z"/>
<path d="M3595 3129 c-5 -5 -56 -39 -112 -76 -57 -36 -103 -69 -103 -75 0 -9
20 -50 39 -77 7 -11 19 -8 65 18 41 24 57 29 61 19 35 -102 35 -101 15 -133
-53 -83 -53 -84 -40 -147 14 -62 23 -70 41 -36 6 12 16 27 21 32 5 6 20 26 33
45 14 19 25 28 25 20 0 -8 12 -30 26 -47 30 -36 72 -43 98 -16 28 27 18 138
-20 221 -8 17 -14 37 -14 45 0 22 -102 218 -114 218 -6 -1 -15 -5 -21 -11z
m78 -161 c7 -18 21 -64 31 -101 17 -61 17 -70 4 -84 -13 -12 -19 -13 -36 -2
-21 13 -82 126 -82 153 0 8 -5 18 -11 22 -8 4 1 14 22 25 47 25 57 24 72 -13z"/>
<path d="M826 3027 c-39 -40 -75 -101 -111 -192 -21 -49 -45 -126 -45 -141 0
-14 35 -29 115 -48 33 -8 84 -21 113 -29 40 -12 54 -13 57 -4 16 49 25 101 18
107 -4 5 -27 14 -49 22 l-42 14 17 34 c28 58 61 168 61 203 0 41 -31 77 -67
77 -18 0 -39 -14 -67 -43z m52 -135 c2 -25 -4 -59 -14 -81 l-17 -38 -38 11
c-54 16 -62 27 -49 62 22 56 60 95 88 92 24 -3 27 -8 30 -46z"/>
<path d="M1080 1500 c-24 -24 -25 -54 -5 -94 31 -59 2 -92 -41 -45 -15 17 -16
23 -5 40 10 18 10 23 -6 34 -14 11 -19 10 -30 -4 -36 -47 15 -131 79 -131 65
0 81 44 47 127 -7 18 -10 36 -6 40 14 13 42 -14 42 -41 1 -14 8 -33 16 -41 14
-14 17 -13 29 9 11 21 10 30 -4 60 -15 33 -59 66 -86 66 -5 0 -19 -9 -30 -20z"/>
<path d="M1225 1358 c-17 -16 -51 -45 -77 -66 -26 -20 -49 -42 -52 -48 -5 -13
95 -124 111 -124 26 0 18 30 -19 68 -35 37 -38 44 -24 57 22 22 33 19 67 -19
18 -21 36 -33 45 -29 14 5 20 33 7 33 -5 0 -20 16 -36 35 -26 32 -26 35 -9 44
20 11 44 -5 76 -50 13 -19 18 -20 30 -9 14 11 14 15 -4 39 -10 14 -34 42 -52
62 l-34 35 -29 -28z"/>
<path d="M1365 1207 c-27 -17 -56 -37 -63 -44 -7 -7 -17 -13 -21 -13 -4 0 -18
-9 -31 -20 -20 -18 -21 -21 -6 -35 15 -15 17 -15 32 -1 20 20 22 20 60 -6 26
-18 32 -28 27 -46 -3 -15 1 -30 13 -43 18 -20 18 -19 35 33 10 29 18 61 18 70
1 10 8 38 17 64 14 43 14 47 -3 60 -24 18 -21 18 -78 -19z m29 -65 c-7 -34
-24 -41 -43 -18 -9 11 -6 18 16 34 15 11 29 19 31 18 1 -2 -1 -17 -4 -34z"/>
<path d="M1496 1116 c-14 -25 -32 -51 -40 -58 -7 -8 -21 -29 -31 -48 -14 -27
-15 -34 -4 -41 8 -4 36 -23 64 -43 35 -26 51 -32 57 -23 12 19 10 23 -32 52
-22 15 -40 31 -40 36 0 4 21 38 46 74 38 54 44 68 34 80 -19 23 -26 19 -54
-29z"/>
<path d="M2785 1063 c-11 -3 -40 -14 -63 -25 -33 -14 -43 -24 -39 -36 35 -107
67 -177 82 -180 29 -6 37 12 20 44 -31 60 -8 75 53 33 44 -30 67 -35 90 -20 9
5 1 16 -30 36 -24 16 -45 31 -48 33 -2 1 1 12 8 23 19 30 6 78 -25 90 -13 5
-25 8 -26 8 -1 -1 -11 -4 -22 -6z m35 -62 c0 -12 -12 -26 -31 -35 -35 -18 -44
-15 -52 14 -4 15 1 24 16 30 39 16 67 12 67 -9z"/>
<path d="M1714 1018 c-26 -12 -64 -81 -64 -114 0 -54 58 -104 120 -104 71 0
120 101 85 174 -23 49 -89 70 -141 44z m98 -51 c23 -36 -1 -112 -38 -121 -70
-18 -97 85 -36 132 19 14 62 8 74 -11z"/>
<path d="M1912 962 c-12 -29 -44 -184 -40 -188 2 -1 12 -4 23 -6 16 -2 21 5
29 40 8 40 12 43 35 39 14 -2 33 -7 42 -11 12 -5 18 -1 22 14 4 17 -1 22 -39
32 -31 9 -43 17 -39 26 3 7 5 18 5 24 0 9 18 7 88 -9 17 -4 22 -1 22 15 0 17
-10 23 -57 32 -32 6 -63 13 -70 15 -6 2 -16 -8 -21 -23z"/>
<path d="M2547 977 c-53 -9 -58 -11 -52 -31 3 -11 14 -61 23 -109 15 -78 19
-87 37 -85 17 3 20 9 17 45 -3 39 -2 41 30 48 54 12 68 26 68 67 0 25 -7 45
-20 58 -22 22 -20 22 -103 7z m78 -61 c0 -25 -53 -45 -66 -25 -5 8 -9 22 -9
32 0 15 7 18 38 15 29 -2 37 -7 37 -22z"/>
<path d="M2361 953 l-44 -4 7 -94 c8 -111 12 -125 37 -125 16 0 19 8 19 45 l0
45 39 0 c45 0 71 26 71 70 0 54 -36 72 -129 63z m77 -65 c-2 -18 -11 -24 -35
-26 -30 -3 -33 -1 -33 22 0 23 4 26 36 26 31 0 35 -3 32 -22z"/>
<path d="M2154 873 c-15 -43 -30 -82 -34 -88 -4 -5 -10 -20 -13 -32 -4 -19 -1
-23 17 -23 12 0 25 9 31 23 8 17 20 23 53 25 37 3 43 0 52 -22 7 -18 17 -26
34 -26 24 0 24 2 14 33 -6 17 -14 37 -18 42 -4 6 -15 35 -25 65 -22 67 -31 80
-60 80 -20 0 -27 -12 -51 -77z m70 -15 c9 -35 8 -38 -18 -38 -23 0 -24 2 -15
30 13 36 24 38 33 8z"/>
</g>
</svg>
